<svg xmlns="http://www.w3.org/2000/svg" xmlns:xlink="http://www.w3.org/1999/xlink" version="1.1" id="Capa_1" x="0px" y="0px" viewBox="0 0 25 25" style="enable-background:new 0 0 25 25;" xml:space="preserve" width="28"  height="28" >
<style type="text/css">
	.st0{fill:#E1306C;}
</style>
<g id="Atoms-_-Icons-_-white-_-32px-_-rrss-_-instagram" transform="translate(-5 -5)">
	<path id="Combined-Shape" class="st0" d="M24.5,6.5c2.2,0,4,1.8,4,4v13.9c0,2.2-1.8,4-4,4h-14c-2.2,0-4-1.8-4-4V10.5   c0-2.2,1.8-4,4-4H24.5z M17.5,24.5c3.9,0,7-3.1,7-7s-3.1-7-7-7s-7,3.1-7,7C10.5,21.3,13.7,24.5,17.5,24.5z M24.7,12   c0.9,0,1.6-0.7,1.6-1.6c0-0.9-0.7-1.6-1.6-1.6s-1.6,0.7-1.6,1.6S23.8,12,24.7,12z M17.5,13.5c2.2,0,4,1.8,4,4s-1.8,4-4,4   s-4-1.8-4-4S15.3,13.5,17.5,13.5z"/>
</g>
</svg>